<mxfile host="app.diagrams.net" agent="Mozilla/5.0 (Windows NT 10.0; Win64; x64) AppleWebKit/537.36 (KHTML, like Gecko) Chrome/133.0.0.0 Safari/537.36" version="26.1.1">
  <diagram name="Trang-1" id="1v5QNmgpW-E35e3ePi3R">
    <mxGraphModel dx="3695" dy="1494" grid="1" gridSize="10" guides="1" tooltips="1" connect="1" arrows="1" fold="1" page="1" pageScale="1" pageWidth="827" pageHeight="1169" math="0" shadow="0">
      <root>
        <mxCell id="0" />
        <mxCell id="1" parent="0" />
        <mxCell id="I32CnrrPBJyiHDefyji5-1" value="Actor" style="shape=umlActor;verticalLabelPosition=bottom;verticalAlign=top;html=1;" parent="1" vertex="1">
          <mxGeometry x="50" y="270" width="30" height="60" as="geometry" />
        </mxCell>
        <mxCell id="I32CnrrPBJyiHDefyji5-5" value="Tìm kiếm sản phẩm&amp;nbsp;" style="ellipse;whiteSpace=wrap;html=1;" parent="1" vertex="1">
          <mxGeometry x="180" y="150" width="140" height="70" as="geometry" />
        </mxCell>
        <mxCell id="I32CnrrPBJyiHDefyji5-6" value="Tìm kiếm sản phẩm theo danh mục" style="ellipse;whiteSpace=wrap;html=1;" parent="1" vertex="1">
          <mxGeometry x="470" y="190" width="140" height="70" as="geometry" />
        </mxCell>
        <mxCell id="I32CnrrPBJyiHDefyji5-7" value="Gợi ý sản phẩm&amp;nbsp;" style="ellipse;whiteSpace=wrap;html=1;" parent="1" vertex="1">
          <mxGeometry x="190" y="310" width="140" height="70" as="geometry" />
        </mxCell>
        <mxCell id="I32CnrrPBJyiHDefyji5-8" value="Khuyến mãi" style="ellipse;whiteSpace=wrap;html=1;" parent="1" vertex="1">
          <mxGeometry x="210" y="500" width="140" height="70" as="geometry" />
        </mxCell>
        <mxCell id="I32CnrrPBJyiHDefyji5-9" value="Gợi ý sản phẩm qua dữ liệu cá nhân" style="ellipse;whiteSpace=wrap;html=1;" parent="1" vertex="1">
          <mxGeometry x="430" y="295" width="140" height="70" as="geometry" />
        </mxCell>
        <mxCell id="I32CnrrPBJyiHDefyji5-10" value="Gợi ý sản phẩm hot trend" style="ellipse;whiteSpace=wrap;html=1;" parent="1" vertex="1">
          <mxGeometry x="430" y="400" width="140" height="70" as="geometry" />
        </mxCell>
        <mxCell id="I32CnrrPBJyiHDefyji5-11" value="Tìm kiếm và gợi ý sản phẩm" style="shape=umlFrame;whiteSpace=wrap;html=1;pointerEvents=0;width=190;height=40;" parent="1" vertex="1">
          <mxGeometry x="150" y="60" width="620" height="540" as="geometry" />
        </mxCell>
        <mxCell id="I32CnrrPBJyiHDefyji5-14" value="" style="endArrow=none;html=1;rounded=0;exitX=1;exitY=0.3333333333333333;exitDx=0;exitDy=0;exitPerimeter=0;entryX=0.105;entryY=0.829;entryDx=0;entryDy=0;entryPerimeter=0;" parent="1" source="I32CnrrPBJyiHDefyji5-1" target="I32CnrrPBJyiHDefyji5-5" edge="1">
          <mxGeometry relative="1" as="geometry">
            <mxPoint x="340" y="250" as="sourcePoint" />
            <mxPoint x="500" y="250" as="targetPoint" />
          </mxGeometry>
        </mxCell>
        <mxCell id="I32CnrrPBJyiHDefyji5-16" value="" style="endArrow=none;html=1;rounded=0;exitX=1;exitY=0.3333333333333333;exitDx=0;exitDy=0;exitPerimeter=0;entryX=0;entryY=0.5;entryDx=0;entryDy=0;" parent="1" source="I32CnrrPBJyiHDefyji5-1" target="I32CnrrPBJyiHDefyji5-7" edge="1">
          <mxGeometry relative="1" as="geometry">
            <mxPoint x="340" y="250" as="sourcePoint" />
            <mxPoint x="500" y="250" as="targetPoint" />
          </mxGeometry>
        </mxCell>
        <mxCell id="I32CnrrPBJyiHDefyji5-17" value="" style="endArrow=none;html=1;rounded=0;exitX=1;exitY=1;exitDx=0;exitDy=0;exitPerimeter=0;entryX=0;entryY=0.5;entryDx=0;entryDy=0;" parent="1" source="I32CnrrPBJyiHDefyji5-1" target="I32CnrrPBJyiHDefyji5-8" edge="1">
          <mxGeometry relative="1" as="geometry">
            <mxPoint x="230" y="300" as="sourcePoint" />
            <mxPoint x="500" y="250" as="targetPoint" />
          </mxGeometry>
        </mxCell>
        <mxCell id="I32CnrrPBJyiHDefyji5-20" value="Mua hàng&amp;nbsp;" style="shape=umlFrame;whiteSpace=wrap;html=1;pointerEvents=0;width=120;height=50;" parent="1" vertex="1">
          <mxGeometry x="-640" y="70" width="570" height="530" as="geometry" />
        </mxCell>
        <mxCell id="I32CnrrPBJyiHDefyji5-21" value="Thông tin chi tiết sản phẩm" style="ellipse;whiteSpace=wrap;html=1;" parent="1" vertex="1">
          <mxGeometry x="-610" y="160" width="140" height="70" as="geometry" />
        </mxCell>
        <mxCell id="I32CnrrPBJyiHDefyji5-22" value="Đánh giá và reivew&amp;nbsp;" style="ellipse;whiteSpace=wrap;html=1;" parent="1" vertex="1">
          <mxGeometry x="-410" y="100" width="140" height="70" as="geometry" />
        </mxCell>
        <mxCell id="I32CnrrPBJyiHDefyji5-23" value="Giỏ hàng&amp;nbsp;" style="ellipse;whiteSpace=wrap;html=1;" parent="1" vertex="1">
          <mxGeometry x="-570" y="270" width="140" height="70" as="geometry" />
        </mxCell>
        <mxCell id="I32CnrrPBJyiHDefyji5-24" value="Theo dõi quá trình giao hàng" style="ellipse;whiteSpace=wrap;html=1;" parent="1" vertex="1">
          <mxGeometry x="-590" y="410" width="140" height="70" as="geometry" />
        </mxCell>
        <mxCell id="I32CnrrPBJyiHDefyji5-26" value="Actor" style="shape=umlActor;verticalLabelPosition=bottom;verticalAlign=top;html=1;" parent="1" vertex="1">
          <mxGeometry x="-710" y="250" width="30" height="60" as="geometry" />
        </mxCell>
        <mxCell id="I32CnrrPBJyiHDefyji5-27" value="" style="endArrow=none;html=1;rounded=0;exitX=1;exitY=0.3333333333333333;exitDx=0;exitDy=0;exitPerimeter=0;entryX=0;entryY=1;entryDx=0;entryDy=0;" parent="1" source="I32CnrrPBJyiHDefyji5-26" target="I32CnrrPBJyiHDefyji5-21" edge="1">
          <mxGeometry relative="1" as="geometry">
            <mxPoint x="-580" y="220" as="sourcePoint" />
            <mxPoint x="-420" y="220" as="targetPoint" />
          </mxGeometry>
        </mxCell>
        <mxCell id="I32CnrrPBJyiHDefyji5-30" value="" style="endArrow=none;html=1;rounded=0;exitX=1;exitY=1;exitDx=0;exitDy=0;exitPerimeter=0;entryX=0;entryY=0.5;entryDx=0;entryDy=0;" parent="1" source="I32CnrrPBJyiHDefyji5-26" target="I32CnrrPBJyiHDefyji5-23" edge="1">
          <mxGeometry relative="1" as="geometry">
            <mxPoint x="-580" y="220" as="sourcePoint" />
            <mxPoint x="-420" y="220" as="targetPoint" />
          </mxGeometry>
        </mxCell>
        <mxCell id="I32CnrrPBJyiHDefyji5-31" value="" style="endArrow=none;html=1;rounded=0;exitX=1;exitY=1;exitDx=0;exitDy=0;exitPerimeter=0;entryX=0;entryY=0.5;entryDx=0;entryDy=0;" parent="1" source="I32CnrrPBJyiHDefyji5-26" target="I32CnrrPBJyiHDefyji5-24" edge="1">
          <mxGeometry relative="1" as="geometry">
            <mxPoint x="-580" y="220" as="sourcePoint" />
            <mxPoint x="-420" y="220" as="targetPoint" />
          </mxGeometry>
        </mxCell>
        <mxCell id="L-Wov4_XpNil5XZy_HoD-1" value="&amp;lt;&amp;lt;include&amp;gt;&amp;gt;" style="html=1;verticalAlign=bottom;labelBackgroundColor=none;endArrow=open;endFill=0;dashed=1;rounded=0;entryX=0;entryY=0.5;entryDx=0;entryDy=0;exitX=1;exitY=0.5;exitDx=0;exitDy=0;" parent="1" source="I32CnrrPBJyiHDefyji5-5" target="L-Wov4_XpNil5XZy_HoD-2" edge="1">
          <mxGeometry x="-0.0445" y="-6" width="160" relative="1" as="geometry">
            <mxPoint x="320" y="170" as="sourcePoint" />
            <mxPoint x="320" y="185" as="targetPoint" />
            <mxPoint as="offset" />
          </mxGeometry>
        </mxCell>
        <mxCell id="L-Wov4_XpNil5XZy_HoD-2" value="Lọc&amp;nbsp; sản phẩm theo từ khóa" style="ellipse;whiteSpace=wrap;html=1;" parent="1" vertex="1">
          <mxGeometry x="470" y="90" width="120" height="80" as="geometry" />
        </mxCell>
        <mxCell id="L-Wov4_XpNil5XZy_HoD-5" value="&amp;lt;&amp;lt;extend&amp;gt;&amp;gt;" style="html=1;verticalAlign=bottom;labelBackgroundColor=none;endArrow=open;endFill=0;dashed=1;rounded=0;exitX=0;exitY=0.5;exitDx=0;exitDy=0;entryX=1;entryY=0.5;entryDx=0;entryDy=0;" parent="1" source="I32CnrrPBJyiHDefyji5-9" target="I32CnrrPBJyiHDefyji5-7" edge="1">
          <mxGeometry width="160" relative="1" as="geometry">
            <mxPoint x="450" y="310" as="sourcePoint" />
            <mxPoint x="610" y="310" as="targetPoint" />
          </mxGeometry>
        </mxCell>
        <mxCell id="L-Wov4_XpNil5XZy_HoD-8" value="&amp;lt;&amp;lt;extend&amp;gt;&amp;gt;" style="html=1;verticalAlign=bottom;labelBackgroundColor=none;endArrow=open;endFill=0;dashed=1;rounded=0;exitX=0;exitY=0.5;exitDx=0;exitDy=0;" parent="1" source="I32CnrrPBJyiHDefyji5-10" edge="1">
          <mxGeometry width="160" relative="1" as="geometry">
            <mxPoint x="470" y="350" as="sourcePoint" />
            <mxPoint x="330" y="350" as="targetPoint" />
          </mxGeometry>
        </mxCell>
        <mxCell id="L-Wov4_XpNil5XZy_HoD-11" value="&amp;lt;&amp;lt;extend&amp;gt;&amp;gt;" style="html=1;verticalAlign=bottom;labelBackgroundColor=none;endArrow=open;endFill=0;dashed=1;rounded=0;exitX=1;exitY=0.5;exitDx=0;exitDy=0;entryX=0;entryY=0.5;entryDx=0;entryDy=0;" parent="1" source="I32CnrrPBJyiHDefyji5-5" target="I32CnrrPBJyiHDefyji5-6" edge="1">
          <mxGeometry width="160" relative="1" as="geometry">
            <mxPoint x="440" y="340" as="sourcePoint" />
            <mxPoint x="340" y="355" as="targetPoint" />
          </mxGeometry>
        </mxCell>
        <mxCell id="L-Wov4_XpNil5XZy_HoD-15" value="&amp;lt;&amp;lt;include&amp;gt;&amp;gt;" style="html=1;verticalAlign=bottom;labelBackgroundColor=none;endArrow=open;endFill=0;dashed=1;rounded=0;exitX=1;exitY=0;exitDx=0;exitDy=0;entryX=0;entryY=0.5;entryDx=0;entryDy=0;" parent="1" source="I32CnrrPBJyiHDefyji5-21" target="I32CnrrPBJyiHDefyji5-22" edge="1">
          <mxGeometry width="160" relative="1" as="geometry">
            <mxPoint x="-430" y="300" as="sourcePoint" />
            <mxPoint x="-270" y="300" as="targetPoint" />
          </mxGeometry>
        </mxCell>
        <mxCell id="L-Wov4_XpNil5XZy_HoD-17" value="&amp;lt;&amp;lt;extend&amp;gt;&amp;gt;" style="edgeStyle=none;html=1;startArrow=open;endArrow=none;startSize=12;verticalAlign=bottom;dashed=1;labelBackgroundColor=none;rounded=0;entryX=0;entryY=0.5;entryDx=0;entryDy=0;" parent="1" target="L-Wov4_XpNil5XZy_HoD-22" edge="1">
          <mxGeometry width="160" relative="1" as="geometry">
            <mxPoint x="-430" y="300" as="sourcePoint" />
            <mxPoint x="-270" y="300" as="targetPoint" />
          </mxGeometry>
        </mxCell>
        <mxCell id="L-Wov4_XpNil5XZy_HoD-20" value="&amp;lt;&amp;lt;extend&amp;gt;&amp;gt;" style="edgeStyle=none;html=1;startArrow=open;endArrow=none;startSize=12;verticalAlign=bottom;dashed=1;labelBackgroundColor=none;rounded=0;entryX=0;entryY=0.5;entryDx=0;entryDy=0;" parent="1" target="L-Wov4_XpNil5XZy_HoD-21" edge="1">
          <mxGeometry width="160" relative="1" as="geometry">
            <mxPoint x="-430" y="300" as="sourcePoint" />
            <mxPoint x="-270" y="300" as="targetPoint" />
          </mxGeometry>
        </mxCell>
        <mxCell id="L-Wov4_XpNil5XZy_HoD-21" value="Thêm sản phẩm" style="ellipse;whiteSpace=wrap;html=1;" parent="1" vertex="1">
          <mxGeometry x="-380" y="220" width="120" height="80" as="geometry" />
        </mxCell>
        <mxCell id="L-Wov4_XpNil5XZy_HoD-22" value="Xóa sán phẩm" style="ellipse;whiteSpace=wrap;html=1;" parent="1" vertex="1">
          <mxGeometry x="-380" y="310" width="120" height="80" as="geometry" />
        </mxCell>
        <mxCell id="L-Wov4_XpNil5XZy_HoD-25" value="Hủy đơn" style="ellipse;whiteSpace=wrap;html=1;" parent="1" vertex="1">
          <mxGeometry x="-380" y="405" width="120" height="80" as="geometry" />
        </mxCell>
        <mxCell id="L-Wov4_XpNil5XZy_HoD-26" value="&amp;lt;&amp;lt;extend&amp;gt;&amp;gt;" style="edgeStyle=none;html=1;startArrow=open;endArrow=none;startSize=12;verticalAlign=bottom;dashed=1;labelBackgroundColor=none;rounded=0;exitX=1;exitY=0.5;exitDx=0;exitDy=0;entryX=0;entryY=0.5;entryDx=0;entryDy=0;" parent="1" source="I32CnrrPBJyiHDefyji5-24" target="L-Wov4_XpNil5XZy_HoD-25" edge="1">
          <mxGeometry width="160" relative="1" as="geometry">
            <mxPoint x="-430" y="300" as="sourcePoint" />
            <mxPoint x="-270" y="300" as="targetPoint" />
          </mxGeometry>
        </mxCell>
        <mxCell id="L-Wov4_XpNil5XZy_HoD-43" value="Giao dịch" style="shape=umlFrame;whiteSpace=wrap;html=1;pointerEvents=0;width=120;height=50;" parent="1" vertex="1">
          <mxGeometry x="170" y="740" width="600" height="520" as="geometry" />
        </mxCell>
        <mxCell id="L-Wov4_XpNil5XZy_HoD-44" value="Đa phương thức thanh toán&amp;nbsp;" style="ellipse;whiteSpace=wrap;html=1;" parent="1" vertex="1">
          <mxGeometry x="220" y="840" width="140" height="70" as="geometry" />
        </mxCell>
        <mxCell id="L-Wov4_XpNil5XZy_HoD-47" value="Chính sách bảo vệ người mua&amp;nbsp;" style="ellipse;whiteSpace=wrap;html=1;" parent="1" vertex="1">
          <mxGeometry x="210" y="1030" width="140" height="70" as="geometry" />
        </mxCell>
        <mxCell id="L-Wov4_XpNil5XZy_HoD-48" value="" style="endArrow=none;html=1;rounded=0;exitX=1;exitY=0.3333333333333333;exitDx=0;exitDy=0;exitPerimeter=0;entryX=0;entryY=1;entryDx=0;entryDy=0;" parent="1" source="L-Wov4_XpNil5XZy_HoD-59" target="L-Wov4_XpNil5XZy_HoD-44" edge="1">
          <mxGeometry relative="1" as="geometry">
            <mxPoint x="130" y="940" as="sourcePoint" />
            <mxPoint x="390" y="890" as="targetPoint" />
          </mxGeometry>
        </mxCell>
        <mxCell id="L-Wov4_XpNil5XZy_HoD-49" value="" style="endArrow=none;html=1;rounded=0;exitX=1;exitY=0.3333333333333333;exitDx=0;exitDy=0;exitPerimeter=0;entryX=0;entryY=0.5;entryDx=0;entryDy=0;" parent="1" source="L-Wov4_XpNil5XZy_HoD-59" target="L-Wov4_XpNil5XZy_HoD-46" edge="1">
          <mxGeometry relative="1" as="geometry">
            <mxPoint x="130" y="980" as="sourcePoint" />
            <mxPoint x="390" y="890" as="targetPoint" />
          </mxGeometry>
        </mxCell>
        <mxCell id="L-Wov4_XpNil5XZy_HoD-50" value="" style="endArrow=none;html=1;rounded=0;entryX=0;entryY=0.5;entryDx=0;entryDy=0;exitX=1;exitY=0.3333333333333333;exitDx=0;exitDy=0;exitPerimeter=0;" parent="1" source="L-Wov4_XpNil5XZy_HoD-59" target="L-Wov4_XpNil5XZy_HoD-47" edge="1">
          <mxGeometry relative="1" as="geometry">
            <mxPoint x="130" y="980" as="sourcePoint" />
            <mxPoint x="390" y="890" as="targetPoint" />
          </mxGeometry>
        </mxCell>
        <mxCell id="L-Wov4_XpNil5XZy_HoD-59" value="Actor" style="shape=umlActor;verticalLabelPosition=bottom;verticalAlign=top;html=1;outlineConnect=0;" parent="1" vertex="1">
          <mxGeometry x="60" y="979.9999999999998" width="30" height="60" as="geometry" />
        </mxCell>
        <mxCell id="L-Wov4_XpNil5XZy_HoD-60" value="Nhiều lựa chọn giao hàng&amp;nbsp;" style="ellipse;whiteSpace=wrap;html=1;" parent="1" vertex="1">
          <mxGeometry x="230" y="1120" width="120" height="80" as="geometry" />
        </mxCell>
        <mxCell id="L-Wov4_XpNil5XZy_HoD-64" value="" style="endArrow=none;html=1;rounded=0;exitX=1;exitY=0.3333333333333333;exitDx=0;exitDy=0;exitPerimeter=0;entryX=0;entryY=0.5;entryDx=0;entryDy=0;" parent="1" source="L-Wov4_XpNil5XZy_HoD-59" target="L-Wov4_XpNil5XZy_HoD-60" edge="1">
          <mxGeometry relative="1" as="geometry">
            <mxPoint x="100" y="1010" as="sourcePoint" />
            <mxPoint x="210" y="965" as="targetPoint" />
          </mxGeometry>
        </mxCell>
        <mxCell id="L-Wov4_XpNil5XZy_HoD-65" value="Hoàn tiền&amp;nbsp;" style="ellipse;whiteSpace=wrap;html=1;" parent="1" vertex="1">
          <mxGeometry x="470" y="900" width="120" height="80" as="geometry" />
        </mxCell>
        <mxCell id="L-Wov4_XpNil5XZy_HoD-66" value="&amp;lt;&amp;lt;extend&amp;gt;&amp;gt;" style="edgeStyle=none;html=1;startArrow=open;endArrow=none;startSize=12;verticalAlign=bottom;dashed=1;labelBackgroundColor=none;rounded=0;exitX=0;exitY=0.5;exitDx=0;exitDy=0;entryX=1;entryY=0.5;entryDx=0;entryDy=0;" parent="1" source="L-Wov4_XpNil5XZy_HoD-65" target="L-Wov4_XpNil5XZy_HoD-46" edge="1">
          <mxGeometry width="160" relative="1" as="geometry">
            <mxPoint x="380" y="1140" as="sourcePoint" />
            <mxPoint x="410" y="960" as="targetPoint" />
          </mxGeometry>
        </mxCell>
        <mxCell id="L-Wov4_XpNil5XZy_HoD-46" value="Trả hàng&amp;nbsp;" style="ellipse;whiteSpace=wrap;html=1;" parent="1" vertex="1">
          <mxGeometry x="190" y="950" width="140" height="70" as="geometry" />
        </mxCell>
        <mxCell id="L-Wov4_XpNil5XZy_HoD-68" value="Liên hệ hỗ trợ" style="ellipse;whiteSpace=wrap;html=1;" parent="1" vertex="1">
          <mxGeometry x="430" y="1030" width="120" height="80" as="geometry" />
        </mxCell>
        <mxCell id="L-Wov4_XpNil5XZy_HoD-69" value="&amp;lt;&amp;lt;extend&amp;gt;&amp;gt;" style="html=1;verticalAlign=bottom;labelBackgroundColor=none;endArrow=open;endFill=0;dashed=1;rounded=0;exitX=1;exitY=0.5;exitDx=0;exitDy=0;entryX=0;entryY=0.5;entryDx=0;entryDy=0;" parent="1" source="L-Wov4_XpNil5XZy_HoD-47" target="L-Wov4_XpNil5XZy_HoD-68" edge="1">
          <mxGeometry width="160" relative="1" as="geometry">
            <mxPoint x="400" y="1020" as="sourcePoint" />
            <mxPoint x="560" y="1020" as="targetPoint" />
          </mxGeometry>
        </mxCell>
        <mxCell id="L-Wov4_XpNil5XZy_HoD-70" value="Khiếu nại" style="ellipse;whiteSpace=wrap;html=1;" parent="1" vertex="1">
          <mxGeometry x="430" y="1130" width="120" height="80" as="geometry" />
        </mxCell>
        <mxCell id="L-Wov4_XpNil5XZy_HoD-71" value="&amp;lt;&amp;lt;extend&amp;gt;&amp;gt;" style="html=1;verticalAlign=bottom;labelBackgroundColor=none;endArrow=open;endFill=0;dashed=1;rounded=0;exitX=1;exitY=0.5;exitDx=0;exitDy=0;entryX=0;entryY=0;entryDx=0;entryDy=0;" parent="1" source="L-Wov4_XpNil5XZy_HoD-47" target="L-Wov4_XpNil5XZy_HoD-70" edge="1">
          <mxGeometry width="160" relative="1" as="geometry">
            <mxPoint x="400" y="1020" as="sourcePoint" />
            <mxPoint x="560" y="1020" as="targetPoint" />
          </mxGeometry>
        </mxCell>
      </root>
    </mxGraphModel>
  </diagram>
</mxfile>
